
<svg width="12px" height="16px" viewBox="0 0 12 16" version="1.1" xmlns="http://www.w3.org/2000/svg" xmlns:xlink="http://www.w3.org/1999/xlink">

    <g id="Page-1" stroke="none" stroke-width="1" fill="none" fill-rule="evenodd">
        <g id="Galaxy-S8-Copy-3" transform="translate(-186.000000, -474.000000)" fill="#F160AD" fill-rule="nonzero">
            <path d="M198,479.744583 C198,476.576995 195.308364,474 191.999967,474 C188.691571,474 186,476.576995 186,479.744583 C186,482.631608 188.236116,485.027635 191.137136,485.429478 L191.137136,486.503288 L190.073668,486.503288 C189.597128,486.503288 189.210771,486.873194 189.210771,487.329443 C189.210771,487.785692 189.597128,488.155597 190.073668,488.155597 L191.137136,488.155597 L191.137201,489.173908 C191.137201,489.630157 191.523558,490 192.000098,490 C192.476638,490 192.862995,489.630094 192.862995,489.173845 L192.862929,488.155597 L193.926397,488.155597 C194.402938,488.155597 194.789294,487.785692 194.789294,487.329443 C194.789294,486.873194 194.402938,486.503288 193.926397,486.503288 L192.862929,486.503288 L192.862929,485.429478 C195.763851,485.027697 198,482.631608 198,479.744583 Z M191.999967,483.836856 C189.64315,483.836856 187.725696,482.001047 187.725696,479.744583 C187.725761,477.488056 189.643182,475.652278 191.999967,475.652278 C194.356752,475.652278 196.274239,477.488087 196.274239,479.744583 C196.274239,482.001047 194.356785,483.836856 191.999967,483.836856 Z" id="SVGCleanerId_0-Copy"></path>
        </g>
    </g>
</svg>