
<svg width="78px" height="109px" viewBox="0 0 78 109" version="1.1" xmlns="http://www.w3.org/2000/svg" xmlns:xlink="http://www.w3.org/1999/xlink">
    <g id="Page-1" stroke="none" stroke-width="1" fill="none" fill-rule="evenodd">
        <g id="Desktop-Copy-10" transform="translate(-526.000000, -265.000000)" fill="#FAF9FF" fill-rule="nonzero">
            <g id="venus" transform="translate(526.000000, 265.000000)">
                <path d="M78,39.1349685 C78,17.5557782 60.5043656,0 38.9997878,0 C17.4952101,0 0,17.5557782 0,39.1349685 C0,58.8028305 14.5347532,75.1257615 33.3913831,77.8633167 L33.3913831,85.17865 L26.4788413,85.17865 C23.3813301,85.17865 20.8700122,87.6986314 20.8700122,90.8068285 C20.8700122,93.9150256 23.3813301,96.435007 26.4788413,96.435007 L33.3913831,96.435007 L33.3918074,103.372247 C33.3918074,106.480444 35.9031253,109 39.0006365,109 C42.0981477,109 44.6094655,106.480019 44.6094655,103.371822 L44.6090412,96.435007 L51.521583,96.435007 C54.6190942,96.435007 57.1304121,93.9150256 57.1304121,90.8068285 C57.1304121,87.6986314 54.6190942,85.17865 51.521583,85.17865 L44.6090412,85.17865 L44.6090412,77.8633167 C63.4650347,75.1261873 78,58.8028305 78,39.1349685 Z M38.9997878,67.0135801 C23.6804733,67.0135801 11.2170216,54.5071318 11.2170216,39.1349685 C11.2174459,23.7623794 23.6806854,11.256144 38.9997878,11.256144 C54.3188902,11.256144 66.7825541,23.7625923 66.7825541,39.1349685 C66.7825541,54.5071318 54.3191024,67.0135801 38.9997878,67.0135801 Z" id="SVGCleanerId_0"></path>
                <path d="M78,39.1349685 C78,17.5557782 60.5043656,0 38.9997878,0 C17.4952101,0 0,17.5557782 0,39.1349685 C0,58.8028305 14.5347532,75.1257615 33.3913831,77.8633167 L33.3913831,85.17865 L26.4788413,85.17865 C23.3813301,85.17865 20.8700122,87.6986314 20.8700122,90.8068285 C20.8700122,93.9150256 23.3813301,96.435007 26.4788413,96.435007 L33.3913831,96.435007 L33.3918074,103.372247 C33.3918074,106.480444 35.9031253,109 39.0006365,109 C42.0981477,109 44.6094655,106.480019 44.6094655,103.371822 L44.6090412,96.435007 L51.521583,96.435007 C54.6190942,96.435007 57.1304121,93.9150256 57.1304121,90.8068285 C57.1304121,87.6986314 54.6190942,85.17865 51.521583,85.17865 L44.6090412,85.17865 L44.6090412,77.8633167 C63.4650347,75.1261873 78,58.8028305 78,39.1349685 Z M38.9997878,67.0135801 C23.6804733,67.0135801 11.2170216,54.5071318 11.2170216,39.1349685 C11.2174459,23.7623794 23.6806854,11.256144 38.9997878,11.256144 C54.3188902,11.256144 66.7825541,23.7625923 66.7825541,39.1349685 C66.7825541,54.5071318 54.3191024,67.0135801 38.9997878,67.0135801 Z" id="SVGCleanerId_0_1_"></path>
            </g>
        </g>
    </g>
</svg>