
<svg width="88px" height="88px" viewBox="0 0 88 88" version="1.1" xmlns="http://www.w3.org/2000/svg" xmlns:xlink="http://www.w3.org/1999/xlink">
    <g id="Page-1" stroke="none" stroke-width="1" fill="none" fill-rule="evenodd">
        <g id="Desktop-Copy-10" transform="translate(-346.000000, -255.000000)" fill="#FAF9FF" fill-rule="nonzero">
            <g id="mars" transform="translate(346.000000, 255.000000)">
                <path d="M82.5324688,28.197361 C85.5519745,28.197361 88,25.7493355 88,22.7298298 L88,5.46907345 L88,5.46684579 C88,5.28452049 87.9902326,5.10459421 87.9730967,4.92706695 C87.9653856,4.84875618 87.9501347,4.77061677 87.9388251,4.692306 C87.924945,4.59428901 87.9132927,4.49507252 87.8939292,4.39859777 C87.8761079,4.30777784 87.8505755,4.21815741 87.8279562,4.12819427 C87.8068791,4.04542818 87.7888865,3.96163395 87.7642109,3.87989601 C87.7373076,3.79130374 87.7037214,3.7045964 87.6720201,3.61668957 C87.6432319,3.53615114 87.6166713,3.45407048 87.5837705,3.37541699 C87.5494989,3.29299362 87.5090583,3.21279791 87.4708454,3.13191676 C87.4326325,3.05137833 87.3968186,2.96929768 87.3550071,2.89098691 C87.3126816,2.81233342 87.2638445,2.73607895 87.2175777,2.65879633 C87.1719964,2.58339865 87.1293282,2.50611603 87.0801483,2.43277465 C87.0210297,2.34418238 86.9543713,2.25918863 86.8895978,2.17368081 C86.8469296,2.11713255 86.8075172,2.05818527 86.7627926,2.00386467 C86.648668,1.86540712 86.527689,1.7308908 86.3986561,1.60151524 C86.2692806,1.47213968 86.1340788,1.35116068 85.9951072,1.23703601 C85.9430142,1.19436778 85.8871514,1.15684029 85.8336876,1.116057 C85.745438,1.04854181 85.6571885,0.980169824 85.5653404,0.918823531 C85.4964543,0.872556774 85.4227703,0.831773484 85.3509711,0.788762535 C85.2697472,0.739925402 85.1895515,0.688517894 85.1064427,0.644478795 C85.0327586,0.605066372 84.9558187,0.571137417 84.8797356,0.535152161 C84.7943991,0.494368871 84.70872,0.451357923 84.6213272,0.415201309 C84.5488426,0.384870879 84.4732736,0.360880708 84.3994181,0.333634729 C84.3053424,0.299705773 84.2117807,0.263720517 84.1165055,0.234932313 C84.0443636,0.212998443 83.9699941,0.197062115 83.8959673,0.178384054 C83.7972648,0.152851658 83.6980483,0.125091603 83.5978037,0.10555675 C83.5162371,0.0894490644 83.4326142,0.0803670713 83.3500195,0.0676865526 C83.2562865,0.0534638086 83.1630675,0.0363279725 83.0689918,0.0272459794 C82.9319051,0.0137086689 82.7922481,0.00942470985 82.6524196,0.00616890099 C82.6123218,0.00548346755 82.5732521,0 82.5328115,0 L65.2699989,0 C62.2504932,0 59.8024676,2.44802554 59.8024676,5.46753122 C59.8024676,8.4870369 62.2504932,10.9350624 65.2699989,10.9350624 L69.3334197,10.9350624 L61.0957092,19.1724302 C54.7372858,14.3870766 46.8356091,11.5471545 38.282942,11.5471545 C17.3196455,11.5471545 0.264519209,28.6022808 0.264519209,49.5655773 C0.264519209,70.5288737 17.3196455,87.584 38.2832847,87.584 C59.2465811,87.584 76.3013647,70.5288737 76.3013647,49.5655773 C76.3013647,41.0905354 73.5128501,33.2548317 68.8064927,26.925882 L77.0651089,18.666923 L77.0651089,22.7296584 C77.0649376,25.7496782 79.5129631,28.197361 82.5324688,28.197361 Z M38.2832847,76.6489376 C23.3492322,76.6489376 11.1995817,64.4996298 11.1995817,49.5655773 C11.1995817,34.6315247 23.3492322,22.4818742 38.2832847,22.4818742 C53.2169945,22.4818742 65.3661309,34.6315247 65.3661309,49.5655773 C65.3661309,64.4996298 53.2169945,76.6489376 38.2832847,76.6489376 Z" id="Shape"></path>
            </g>
        </g>
    </g>
</svg>